<?xml version="1.0" standalone="no"?><!DOCTYPE svg PUBLIC "-//W3C//DTD SVG 1.1//EN" "http://www.w3.org/Graphics/SVG/1.1/DTD/svg11.dtd"><svg t="1743561359832" class="icon" viewBox="0 0 1024 1024" version="1.1" xmlns="http://www.w3.org/2000/svg" p-id="2649" xmlns:xlink="http://www.w3.org/1999/xlink" width="200" height="200"><path d="M139.24 600.677c-81.1 80.656-81.1 209.643 0 282.21 81.099 72.566 210.871 80.621 283.847 0l137.897-137.078 56.762 56.456L479.85 939.342c-113.526 112.877-291.938 112.877-397.374 0-105.47-112.877-113.56-290.265 0-395.087l145.986-145.132 56.763 56.421-145.986 145.133z m600.156-32.221L885.38 423.323c81.1-80.656 81.1-209.643 0-282.21-81.1-72.566-210.872-80.621-283.848 0L455.547 286.246l-56.796-56.456L544.736 84.658c113.56-112.877 291.972-112.877 397.408 0 105.47 112.877 113.56 290.265 0 395.087L796.158 624.877l-56.762-56.421zM569.073 512l283.882 282.21-56.797 56.421L512.31 568.456 569.073 512z m-113.526 0L171.665 229.79l56.797-56.387L512.31 455.544 455.547 512z" p-id="2650" fill="#ffffff"></path></svg>